<svg width="194" height="116" viewBox="0 0 194 116" fill="none" xmlns="http://www.w3.org/2000/svg">
<path d="M132.551 40.6364V93H143.29V58.7898H143.724L157.276 92.7443H164.588L178.139 58.9176H178.574V93H189.312V40.6364H175.659L161.239 75.8182H160.625L146.205 40.6364H132.551Z" fill="#ECC94B"/>
<path d="M23.1136 93C39.0682 93 48.733 83.1307 48.733 66.767C48.733 50.4545 39.0682 40.6364 23.267 40.6364H4.55114V93H23.1136ZM15.6222 83.5142V50.1222H22.679C32.4972 50.1222 37.6875 55.1335 37.6875 66.767C37.6875 78.4517 32.4972 83.5142 22.6534 83.5142H15.6222Z" fill="#ECC94B"/>
<path d="M48.6818 23.1818H32.2841L56.3864 93H75.4091L99.4773 23.1818H83.1136L66.2045 76.2273H65.5568L48.6818 23.1818ZM136.21 55.5682C134.914 45.9205 127.142 39.9545 113.914 39.9545C100.517 39.9545 91.6872 46.1591 91.7212 56.25C91.6872 64.0909 96.6303 69.1705 106.858 71.2159L115.926 73.0227C120.494 73.9432 122.574 75.6136 122.642 78.2386C122.574 81.3409 119.199 83.5568 114.119 83.5568C108.937 83.5568 105.494 81.3409 104.608 77.0795L90.3235 77.8295C91.6872 87.8523 100.21 94.0227 114.085 94.0227C127.653 94.0227 137.369 87.1023 137.403 76.7727C137.369 69.2045 132.426 64.6705 122.267 62.5909L112.789 60.6818C107.914 59.625 106.108 57.9545 106.142 55.4318C106.108 52.2955 109.653 50.25 114.153 50.25C119.199 50.25 122.199 53.0114 122.914 56.3864L136.21 55.5682Z" fill="#D69E2E"/>
</svg>
